<svg width="40" height="40" viewBox="0 0 40 40" fill="none" xmlns="http://www.w3.org/2000/svg">
<path d="M26.6666 31.6667C24.6443 31.6667 22.8212 30.4485 22.0472 28.5801C21.2733 26.7117 21.7011 24.5611 23.1311 23.1311C24.5611 21.7012 26.7117 21.2734 28.5801 22.0473C30.4484 22.8212 31.6666 24.6444 31.6666 26.6667C31.6666 27.9928 31.1399 29.2645 30.2022 30.2022C29.2645 31.1399 27.9927 31.6667 26.6666 31.6667ZM13.3333 31.6667C10.5719 31.6667 8.33331 29.4281 8.33331 26.6667C8.33331 23.9053 10.5719 21.6667 13.3333 21.6667C16.0947 21.6667 18.3333 23.9053 18.3333 26.6667C18.3333 27.9928 17.8065 29.2645 16.8688 30.2022C15.9312 31.1399 14.6594 31.6667 13.3333 31.6667ZM26.6666 18.3333C23.9052 18.3333 21.6666 16.0948 21.6666 13.3333C21.6666 10.5719 23.9052 8.33334 26.6666 8.33334C29.4281 8.33334 31.6666 10.5719 31.6666 13.3333C31.6666 16.0948 29.4281 18.3333 26.6666 18.3333ZM13.3333 18.3333C10.5719 18.3333 8.33331 16.0948 8.33331 13.3333C8.33331 10.5719 10.5719 8.33334 13.3333 8.33334C16.0947 8.33334 18.3333 10.5719 18.3333 13.3333C18.3333 14.6594 17.8065 15.9312 16.8688 16.8689C15.9312 17.8066 14.6594 18.3333 13.3333 18.3333Z" fill="white"/>
</svg>
