<svg width="18" height="18" viewBox="0 0 32 32" fill="none" xmlns="http://www.w3.org/2000/svg">
<g clip-path="url(#clip0)">
<path d="M11.5861 11.5937C12 11.5937 12.3355 11.9292 12.3355 12.3431V26.5071C12.3355 26.9207 12 27.2565 11.5861 27.2565C11.1722 27.2565 10.8367 26.9207 10.8367 26.5071V12.3431C10.8367 11.9292 11.1722 11.5937 11.5861 11.5937Z" fill="white"/>
<path d="M20.4291 11.5937C20.8431 11.5937 21.1786 11.9292 21.1786 12.3431V26.5071C21.1786 26.9207 20.8431 27.2565 20.4291 27.2565C20.0152 27.2565 19.6797 26.9207 19.6797 26.5071V12.3431C19.6797 11.9292 20.0152 11.5937 20.4291 11.5937Z" fill="white"/>
<path d="M26.8741 9.52668V27.9906C26.8741 29.0819 26.4739 30.1068 25.7749 30.8422C25.079 31.5796 24.1107 31.9982 23.0972 32H8.91808C7.90432 31.9982 6.93594 31.5796 6.24039 30.8422C5.54133 30.1068 5.14116 29.0819 5.14116 27.9906V9.52668C3.75152 9.15783 2.85106 7.81532 3.03695 6.38939C3.22313 4.96375 4.4377 3.8973 5.87564 3.89701H9.71257V2.96025C9.70818 2.17248 10.0197 1.41605 10.5773 0.85955C11.135 0.303346 11.8926 -0.00637231 12.6804 6.7949e-05H19.3349C20.1227 -0.00637231 20.8803 0.303346 21.4379 0.85955C21.9956 1.41605 22.3071 2.17248 22.3027 2.96025V3.89701H26.1396C27.5776 3.8973 28.7921 4.96375 28.9783 6.38939C29.1642 7.81532 28.2637 9.15783 26.8741 9.52668ZM8.91808 30.5011H23.0972C24.3785 30.5011 25.3753 29.4004 25.3753 27.9906V9.59254H6.63998V27.9906C6.63998 29.4004 7.63676 30.5011 8.91808 30.5011ZM20.8039 2.96025C20.8088 2.57002 20.6555 2.19444 20.3785 1.91897C20.1019 1.64351 19.7254 1.49216 19.3349 1.49889H12.6804C12.2898 1.49216 11.9134 1.64351 11.6367 1.91897C11.3598 2.19415 11.2064 2.57002 11.2114 2.96025V3.89701H20.8039V2.96025ZM26.1396 5.39583H5.87564C5.13062 5.39583 4.5267 5.99976 4.5267 6.74478C4.5267 7.4898 5.13062 8.09372 5.87564 8.09372H26.1396C26.8846 8.09372 27.4886 7.4898 27.4886 6.74478C27.4886 5.99976 26.8846 5.39583 26.1396 5.39583Z" fill="white"/>
<path d="M16.0076 11.5937C16.4215 11.5937 16.757 11.9292 16.757 12.3431V26.5071C16.757 26.9207 16.4215 27.2565 16.0076 27.2565C15.5937 27.2565 15.2582 26.9207 15.2582 26.5071V12.3431C15.2582 11.9292 15.5937 11.5937 16.0076 11.5937Z" fill="white"/>
</g>
<defs>
<clipPath id="clip0">
<rect width="32" height="32" fill="white" transform="matrix(-1 0 0 1 32 6.10352e-05)"/>
</clipPath>
</defs>
</svg>
